# File produced by Open Asset Import Library (http://www.assimp.sf.net)
# (assimp v4.1.0)

mtllib B.mtl

# 138 vertex positions
v  -0.4339061081409454 1.095039170451173e-08 -0.2505156993865967
v  -0.1713631004095078 2.058001236093787e-08 -0.4708156883716583
v  -0.1749774068593979 0.03665514290332794 -0.4807459115982056
v  -0.4430578947067261 0.03665513172745705 -0.255799412727356
v  0.4339061081409454 1.095040058629593e-08 -0.2505159080028534
v  0.4934197962284088 -3.803027670556958e-09 0.08700311183929443
v  0.5038267970085144 0.03665511682629585 0.08883810043334961
v  0.4430578052997589 0.03665513172745705 -0.2557997107505798
v  -0.4934197962284088 -3.803035664162735e-09 0.08700329065322876
v  -0.5038267970085144 0.03665511682629585 0.08883827179670334
v  0.1713628023862839 2.058001769000839e-08 -0.4708158075809479
v  0.1749770045280457 0.03665514290332794 -0.4807460010051727
v  0.3220570087432861 -1.677697625268593e-08 0.3838123977184296
v  0 -2.190079051445082e-08 0.5010315775871277
v  0 0.03665515780448914 0.5115991234779358
v  0.3288496136665344 0.03665516152977943 0.3919076025485992
v  -0.3220570087432861 -1.677698158175644e-08 0.3838124871253967
v  -0.3288496136665344 0.03665516152977943 0.3919076025485992
v  -0.4303829967975616 0.2026947140693665 -0.2484815865755081
v  -0.4894132912158966 0.2026946991682053 0.08629685640335083
v  0.4303829073905945 0.2026947140693665 -0.2484817802906036
v  0.16997130215168 0.2026947140693665 -0.4669929146766663
v  0 0.2026946842670441 0.4969634115695953
v  0.3194420039653778 0.2026946842670441 0.3806959092617035
v  -0.3194419145584106 0.2026946842670441 0.3806959986686707
v  -0.1699717044830322 0.2026947140693665 -0.4669927954673767
v  0.4894134104251862 0.2026946991682053 0.0862966775894165
v  -0.3948844075202942 0.2210223078727722 -0.2279864847660065
v  -0.155952200293541 0.2210223078727722 -0.4284746050834656
v  -0.1699717044830322 0.2393499165773392 -0.4669927954673767
v  -0.4303829967975616 0.2393499165773392 -0.2484815865755081
v  0.3948842883110046 0.2210223078727722 -0.227986678481102
v  0.4490458965301514 0.221022292971611 0.0791788175702095
v  0.4894134104251862 0.239349901676178 0.0862966775894165
v  0.4303829073905945 0.2393499165773392 -0.2484817802906036
v  -0.4490458071231842 0.221022292971611 0.07917892932891846
v  -0.4894132912158966 0.239349901676178 0.08629685640335083
v  0.1559519022703171 0.2210223078727722 -0.4284746944904327
v  0.16997130215168 0.2393499165773392 -0.4669929146766663
v  0.2930940091609955 0.2210222780704498 0.3492957055568695
v  0 0.2210222780704498 0.455973207950592
v  0 0.2393498867750168 0.4969634115695953
v  0.3194420039653778 0.2393498867750168 0.3806959092617035
v  -0.2930938899517059 0.2210222780704498 0.3492957055568695
v  -0.3194419145584106 0.2393498867750168 0.3806959986686707
v  0.1573255956172943 0.3336650431156158 -0.4322488903999329
v  -0.1573258936405182 0.3336650431156158 -0.4322488009929657
v  0.2956756949424744 0.3336649835109711 0.352372407913208
v  0.4530012905597687 0.3336650133132935 0.07987625151872635
v  -0.2956756055355072 0.3336649835109711 0.352372407913208
v  0 0.3336649835109711 0.459989607334137
v  -0.398362785577774 0.3336650133132935 -0.2299946844577789
v  0.3983626067638397 0.3336650133132935 -0.2299948781728745
v  -0.4530012905597687 0.3336650133132935 0.0798763781785965
v  0.285551905632019 0.4544093906879425 0.0503503791987896
v  0.2511099874973297 0.4544093906879425 -0.1449784785509109
v  -0.2511101067066193 0.4544093906879425 -0.1449783891439438
v  -0.285551905632019 0.4544093906879425 0.05035049840807915
v  0.099170982837677 0.4544093906879425 -0.2724704742431641
v  0 0.4544093906879425 0.2899569272994995
v  0.1863808035850525 0.4544093906879425 0.2221198081970215
v  -0.1863808035850525 0.4544093906879425 0.2221198081970215
v  -0.0991712212562561 0.4544093906879425 -0.2724703848361969
v  0.1571052074432373 0.5882924795150757 0.02770181559026241
v  0.1025431007146835 0.5882924795150757 0.1222061216831207
v  0.1003466993570328 0.7420802712440491 0.1195885315537453
v  0.1537400931119919 0.7420802712440491 0.02710846252739429
v  0 0.5882924795150757 0.1595287322998047
v  -0.1025431975722313 0.5882924795150757 0.1222061216831207
v  -0.1003468036651611 0.7420802712440491 0.1195885315537453
v  0 0.7420802712440491 0.1561117321252823
v  -0.138155996799469 0.5882924795150757 -0.07976433634757996
v  -0.05456215143203735 0.5882924795150757 -0.1499080657958984
v  -0.0533934198319912 0.7420802712440491 -0.146697074174881
v  -0.1351968050003052 0.7420802712440491 -0.07805582135915756
v  0.1381559073925018 0.5882924795150757 -0.07976445555686951
v  0.1351967006921768 0.7420802712440491 -0.07805594056844711
v  -0.1571052074432373 0.5882924795150757 0.02770187519490719
v  -0.1537400931119919 0.7420802712440491 0.02710852213203907
v  0.05456196889281273 0.5882924795150757 -0.1499080657958984
v  0.05339330062270164 0.7420802712440491 -0.146697074174881
v  0.1791415959596634 0.8494814038276672 0.2134925276041031
v  0 0.8494811058044434 0.2786948382854462
v  0 0.9433066248893738 0.1357389390468597
v  0.08725129812955856 0.9433066248893738 0.1039820462465286
v  -0.1791415065526962 0.8494814038276672 0.2134925276041031
v  -0.2744609117507935 0.8494811058044434 0.0483948290348053
v  -0.1336767971515656 0.9433066248893738 0.02357081137597561
v  -0.08725135773420334 0.9433066248893738 0.1039820462465286
v  -0.09531933069229126 0.8494814038276672 -0.2618875801563263
v  0.09531915187835693 0.8494811058044434 -0.2618875801563263
v  0.04642539843916893 0.9433066248893738 -0.1275529563426971
v  -0.04642552137374878 0.9433066248893738 -0.1275529563426971
v  0.2744607925415039 0.8494814038276672 0.04839476570487022
v  0.1336767971515656 0.9433066248893738 0.02357075177133083
v  -0.2413568049669266 0.8494814038276672 -0.1393472701311111
v  -0.1175533980131149 0.9433066248893738 -0.06786943227052689
v  0.2413567006587982 0.8494814038276672 -0.1393473744392395
v  0.1175533980131149 0.9433066248893738 -0.06786949187517166
v  -0.1080908998847008 0.9987850785255432 -0.0624062567949295
v  -0.1229164972901344 0.9987850785255432 0.02167348191142082
v  0.108090803027153 0.9987850785255432 -0.06240631639957428
v  0.04268835857510567 0.9987850785255432 -0.1172855570912361
v  0 0.9987850785255432 0.1248126477003098
v  0.08022797107696533 0.9987850785255432 0.09561196714639664
v  -0.08022803068161011 0.9987850785255432 0.09561196714639664
v  -0.04268848150968552 0.9987850785255432 -0.1172855570912361
v  0.1229164004325867 0.9987850785255432 0.02167342230677605
v  0.2444836050271988 0.8082022070884705 -0.1411526650190353
v  0.09655404090881348 0.8082022070884705 -0.2652803659439087
v  -0.244483694434166 0.8082022070884705 -0.1411525756120682
v  -0.278016597032547 0.8082022070884705 0.04902181401848793
v  0.278016597032547 0.8082022070884705 0.04902175441384315
v  -0.09655427187681198 0.8082022070884705 -0.2652803659439087
v  -0.1814624071121216 0.8082022070884705 0.2162584364414215
v  0 0.8082022070884705 0.2823054194450378
v  0.1814624071121216 0.8082022070884705 0.2162584364414215
v  0 0.9009537100791931 3.938194836905495e-08
v  -0.2555651962757111 1.096189022064209 -0.1856766492128372
v  0.09761518239974976 1.096189022064209 -0.3004338443279266
v  -0.2555651068687439 1.096189022064209 0.1856767386198044
v  0.3158980906009674 1.096189022064209 4.791595742403842e-08
v  0.09761524200439453 1.096189022064209 0.300433874130249
v  -0.3158980906009674 1.412088990211487 6.172438560270166e-08
v  -0.09761524200439453 1.412088990211487 -0.3004338443279266
v  0.2555651068687439 1.412088990211487 -0.1856767386198044
v  0.2555651962757111 1.412088990211487 0.1856766641139984
v  -0.09761518239974976 1.412088990211487 0.300433874130249
v  0 1.607325077056885 7.025843018482192e-08
v  0.09998338669538498 0.5529099106788635 -0.2747025787830353
v  -0.09998363256454468 0.5529099106788635 -0.2747024595737457
v  -0.2878910899162292 0.5529099106788635 0.05076297372579575
v  -0.1879075020551682 0.5529099106788635 0.2239394336938858
v  0 0.5529099106788635 0.2923322319984436
v  0.1879075020551682 0.5529099106788635 0.2239394336938858
v  0.2531670033931732 0.5529099106788635 -0.1461661756038666
v  -0.2531672120094299 0.5529099106788635 -0.1461659669876099
v  0.2878910005092621 0.5529099106788635 0.0507628507912159

# 0 UV coordinates

# 138 vertex normals
vn 0.620424211025238 0.2614824771881104 0.739392101764679
vn -0.9505445957183838 0.2614825069904327 0.1676068156957626
vn 0.9505447149276733 0.2614825069904327 0.1676065176725388
vn -0.6204236149787903 0.2614829838275909 0.7393925189971924
vn -0.3301208019256592 0.261482834815979 -0.9069989919662476
vn 0.8358945846557617 0.2614836394786835 -0.4826039969921112
vn 4.248489915426035e-07 0.2614829838275909 0.9652081727981567
vn -0.8358951210975647 0.2614820301532745 -0.4826039969921112
vn 0.3301205039024353 0.261482834815979 -0.9069991111755371
vn 0.9814469218254089 -0.08254778385162354 0.1730553060770035
vn -0.6405937075614929 -0.08254744857549667 0.7634304165840149
vn -0.3408530950546265 -0.0825473815202713 -0.9364855289459229
vn 0.8630697727203369 -0.08254794031381607 -0.4982936084270477
vn 3.88920000204962e-07 -0.08254740387201309 0.9965872168540955
vn -0.863070011138916 -0.0825473964214325 -0.498293399810791
vn 0.3408527970314026 -0.08254744112491608 -0.9364855885505676
vn 0.6405941247940063 -0.08254744857549667 0.7634298801422119
vn -0.9814466834068298 -0.08254802972078323 0.1730556935071945
vn 0.2761789858341217 0.9029917120933533 0.3291372358798981
vn -0.4231308102607727 0.9029917120933533 0.0746094286441803
vn 0.4231306910514832 0.9029917120933533 0.07460919767618179
vn -0.2761789858341217 0.9029915928840637 0.3291375339031219
vn -0.146951898932457 0.9029917120933533 -0.4037462770938873
vn 0.3720948994159698 0.9029915928840637 -0.2148293554782867
vn 0 0.9029914140701294 0.429658830165863
vn -0.3720948994159698 0.9029914736747742 -0.2148291617631912
vn 0.1469517052173615 0.9029914736747742 -0.4037469625473022
vn 0.1469517052173615 -0.902991771697998 -0.4037461280822754
vn -0.372094988822937 -0.9029917120933533 -0.2148290425539017
vn 0 -0.902991771697998 0.4296578764915466
vn 0.3720948994159698 -0.9029915928840637 -0.21482914686203
vn -0.1469517946243286 -0.9029914736747742 -0.4037471413612366
vn -0.2761788964271545 -0.9029914736747742 0.3291376829147339
vn 0.423130601644516 -0.9029917120933533 0.0746091827750206
vn -0.4231306910514832 -0.9029917120933533 0.07460935413837433
vn 0.2761789858341217 -0.902991771697998 0.3291366696357727
vn 2.264820153641267e-07 -0.3456733226776123 0.938355028629303
vn -0.8126394152641296 -0.3456731736660004 -0.4691773355007172
vn 0.3209364116191864 -0.3456733822822571 -0.8817651271820068
vn 0.6031633019447327 -0.3456734418869019 0.7188212871551514
vn -0.9240993857383728 -0.3456729054450989 0.1629437804222107
vn 0.9240993857383728 -0.3456729054450989 0.1629433780908585
vn -0.6031628251075745 -0.3456730246543884 0.7188218235969543
vn -0.3209364116191864 -0.3456730842590332 -0.8817653059959412
vn 0.8126394152641296 -0.3456728756427765 -0.4691775441169739
vn -0.5937461256980896 -0.7978125214576721 0.1046934649348259
vn 0.5937464237213135 -0.7978124022483826 0.1046933606266975
vn -0.3875404000282288 -0.797812283039093 0.4618528783321381
vn -0.2062059044837952 -0.7978125214576721 -0.5665460824966431
vn 0.5221316814422607 -0.7978124022483826 -0.3014529347419739
vn 1.450409996550661e-07 -0.7978122234344482 0.6029060482978821
vn -0.5221319198608398 -0.7978125214576721 -0.30145263671875
vn 0.2062059044837952 -0.7978124022483826 -0.5665462613105774
vn 0.3875406086444855 -0.7978122234344482 0.4618526697158813
vn -0.8658366799354553 -0.02087458781898022 -0.4998911023139954
vn 0.3419454991817474 -0.02087468840181828 -0.9394879937171936
vn 0.6426483988761902 -0.02087476290762424 0.7658768892288208
vn -0.9845930933952332 -0.02087455801665783 0.1736108064651489
vn 0.9845932126045227 -0.02087479829788208 0.1736104041337967
vn -0.6426476836204529 -0.02087470330297947 0.7658774852752686
vn -0.3419455885887146 -0.0208746287971735 -0.9394878745079041
vn 0.8658366799354553 -0.02087476849555969 -0.4998911917209625
vn 2.243360057718746e-07 -0.02087483368813992 0.9997820854187012
vn -0.1958425045013428 -0.8198301792144775 -0.5380746722221375
vn 0.4958924055099487 -0.8198301196098328 -0.286302924156189
vn -7.217749953269958e-07 -0.8198301196098328 0.5726069211959839
vn -0.495891809463501 -0.8198304176330566 -0.2863033413887024
vn 0.1958424001932144 -0.8198298811912537 -0.5380751490592957
vn 0.3680647015571594 -0.8198302984237671 0.4386419653892517
vn -0.5639073848724365 -0.8198304176330566 0.09943230450153351
vn 0.5639079213142395 -0.8198301196098328 0.09943105280399323
vn -0.3680639863014221 -0.8198300004005432 0.4386430680751801
vn 0.9683637022972107 -0.1819801181554794 0.1707484871149063
vn -0.6320539712905884 -0.1819797307252884 0.7532535791397095
vn -0.3363091051578522 -0.1819797605276108 -0.9240018725395203
vn 0.8515647053718567 -0.1819797903299332 -0.4916513860225677
vn 1.852319968520533e-07 -0.1819800436496735 0.9833021759986877
vn -0.8515647053718567 -0.181980088353157 -0.4916510879993439
vn 0.3363099098205566 -0.1819802522659302 -0.9240015745162964
vn 0.6320558190345764 -0.1819801330566406 0.7532520890235901
vn -0.9683637022972107 -0.1819800138473511 0.1707487851381302
vn -0.3130412101745605 0.8733987212181091 0.3730683326721191
vn -0.6406279802322388 -0.08191689103841782 0.763469398021698
vn 0.479607105255127 0.8733987808227539 0.08456769585609436
vn 0.9814980030059814 -0.08191680908203125 0.1730646938085556
vn -0.4796068966388702 0.8733987808227539 0.08456793427467346
vn -0.9814980030059814 -0.08191746473312378 0.1730643957853317
vn 0.3130415976047516 0.873399019241333 0.3730674386024475
vn 0.6406280994415283 -0.08191660046577454 0.7634692788124084
vn 0.1665657013654709 0.8733989000320435 -0.4576354622840881
vn 0.3408707082271576 -0.08191659301519394 -0.9365345239639282
vn -0.4217593967914581 0.8733987212181091 -0.243502750992775
vn -0.8631150722503662 -0.08191654831171036 -0.4983190894126892
vn 0 0.8733987212181091 0.4870060384273529
vn 0 -0.08191667497158051 0.9966391921043396
vn 0.4217593967914581 0.8733989000320435 -0.2435028553009033
vn 0.8631144165992737 -0.08191719651222229 -0.4983204007148743
vn -0.1665657013654709 0.8733986020088196 -0.4576360583305359
vn -0.3408707082271576 -0.08191641420125961 -0.9365345239639282
vn -0.1875967979431152 -0.7946513295173645 -0.5773533582687378
vn -0.6070647239685059 -0.7946524024009705 -3.473536835940649e-08
vn 0.4911220967769623 -0.7946522831916809 -0.3568289279937744
vn 0.491122305393219 -0.7946522831916809 0.3568286597728729
vn -0.1875966042280197 -0.7946509718894958 0.5773536562919617
vn -0.9822462201118469 -0.1875967979431152 1.165678753523025e-07
vn -0.3035357892513275 -0.1875892579555511 -0.9341713786125183
vn 0.7946491241455078 -0.1875868737697601 -0.5773593783378601
vn 0.7946494221687317 -0.1875869333744049 0.5773593187332153
vn -0.3035354912281036 -0.1875891387462616 0.9341716170310974
vn -0.7946494817733765 0.1875869333744049 -0.5773590207099915
vn 0.3035356998443604 0.18758924305439 -0.9341714978218079
vn 0.9822462201118469 0.1875967979431152 -1.53588885609679e-07
vn 0.3035357892513275 0.1875891536474228 0.9341713786125183
vn -0.7946494221687317 0.1875869631767273 0.5773591995239258
vn -0.4911220967769623 0.7946524024009705 -0.3568288683891296
vn 0.1875964999198914 0.794651210308075 -0.5773534178733826
vn 0.6070646047592163 0.79465252161026 3.473537191212017e-08
vn 0.1875966936349869 0.7946513295173645 0.5773534774780273
vn -0.4911220073699951 0.7946522235870361 0.356829434633255
vn 3.797080125877983e-07 0.02265466749668121 0.9997434020042419
vn 0.8658031225204468 0.02265431173145771 -0.4998717904090881
vn -0.3419325947761536 0.0226548109203577 -0.939451277256012
vn -0.6426225900650024 0.02265473641455173 0.76584792137146
vn 0.9845551252365112 0.02265452221035957 0.1736036986112595
vn -0.9845550060272217 0.0226544626057148 0.1736041009426117
vn 0.6426230072975159 0.02265473641455173 0.7658475041389465
vn 0.3419322073459625 0.02265475131571293 -0.9394515156745911
vn -0.8658033013343811 0.02265449240803719 -0.4998714029788971
vn 0 -0.9620776772499084 0.2727753818035126
vn 0.2362304031848907 -0.9620776772499084 -0.1363877505064011
vn -0.09329473227262497 -0.962077796459198 -0.2563251256942749
vn -0.1753365993499756 -0.962077796459198 0.2089579552412033
vn 0.2686313092708588 -0.962077796459198 0.04736680909991264
vn -0.2686313092708588 -0.9620779156684875 0.04736663028597832
vn 0.1753367930650711 -0.962077796459198 0.2089576572179794
vn 0.09329468011856079 -0.9620779156684875 -0.2563245296478271
vn -0.2362304031848907 -0.962077796459198 -0.1363876461982727
vn 0 1 4.371139894487897e-08

# Mesh 'Black_Pawn_mesh' with 138 faces
g Black_Pawn_mesh
usemtl Material_004
f  1//1 2//1 3//1 4//1
f  5//2 6//2 7//2 8//2
f  9//3 1//3 4//3 10//3
f  11//4 5//4 8//4 12//4
f  13//5 14//5 15//5 16//5
f  17//6 9//6 10//6 18//6
f  2//7 11//7 12//7 3//7
f  6//8 13//8 16//8 7//8
f  14//9 17//9 18//9 15//9
f  10//10 4//10 19//10 20//10
f  12//11 8//11 21//11 22//11
f  16//12 15//12 23//12 24//12
f  18//13 10//13 20//13 25//13
f  3//14 12//14 22//14 26//14
f  7//15 16//15 24//15 27//15
f  15//16 18//16 25//16 23//16
f  4//17 3//17 26//17 19//17
f  8//18 7//18 27//18 21//18
f  28//19 29//19 30//19 31//19
f  32//20 33//20 34//20 35//20
f  36//21 28//21 31//21 37//21
f  38//22 32//22 35//22 39//22
f  40//23 41//23 42//23 43//23
f  44//24 36//24 37//24 45//24
f  29//25 38//25 39//25 30//25
f  33//26 40//26 43//26 34//26
f  41//27 44//27 45//27 42//27
f  23//28 25//28 44//28 41//28
f  27//29 24//29 40//29 33//29
f  26//30 22//30 38//30 29//30
f  25//31 20//31 36//31 44//31
f  24//32 23//32 41//32 40//32
f  22//33 21//33 32//33 38//33
f  20//34 19//34 28//34 36//34
f  21//35 27//35 33//35 32//35
f  19//36 26//36 29//36 28//36
f  30//37 39//37 46//37 47//37
f  34//38 43//38 48//38 49//38
f  42//39 45//39 50//39 51//39
f  31//40 30//40 47//40 52//40
f  35//41 34//41 49//41 53//41
f  37//42 31//42 52//42 54//42
f  39//43 35//43 53//43 46//43
f  43//44 42//44 51//44 48//44
f  45//45 37//45 54//45 50//45
f  53//46 49//46 55//46 56//46
f  54//47 52//47 57//47 58//47
f  46//48 53//48 56//48 59//48
f  48//49 51//49 60//49 61//49
f  50//50 54//50 58//50 62//50
f  47//51 46//51 59//51 63//51
f  49//52 48//52 61//52 55//52
f  51//53 50//53 62//53 60//53
f  52//54 47//54 63//54 57//54
f  64//55 65//55 66//55 67//55
f  68//56 69//56 70//56 71//56
f  72//57 73//57 74//57 75//57
f  76//58 64//58 67//58 77//58
f  78//59 72//59 75//59 79//59
f  80//60 76//60 77//60 81//60
f  65//61 68//61 71//61 66//61
f  69//62 78//62 79//62 70//62
f  73//63 80//63 81//63 74//63
f  82//64 83//64 84//64 85//64
f  86//65 87//65 88//65 89//65
f  90//66 91//66 92//66 93//66
f  94//67 82//67 85//67 95//67
f  83//68 86//68 89//68 84//68
f  96//69 90//69 93//69 97//69
f  98//70 94//70 95//70 99//70
f  87//71 96//71 97//71 88//71
f  91//72 98//72 99//72 92//72
f  88//73 97//73 100//73 101//73
f  92//74 99//74 102//74 103//74
f  85//75 84//75 104//75 105//75
f  89//76 88//76 101//76 106//76
f  93//77 92//77 103//77 107//77
f  95//78 85//78 105//78 108//78
f  84//79 89//79 106//79 104//79
f  97//80 93//80 107//80 100//80
f  99//81 95//81 108//81 102//81
f  81//82 77//82 109//82 110//82
f  110//83 109//83 98//83 91//83
f  79//84 75//84 111//84 112//84
f  112//85 111//85 96//85 87//85
f  77//86 67//86 113//86 109//86
f  109//87 113//87 94//87 98//87
f  75//88 74//88 114//88 111//88
f  111//89 114//89 90//89 96//89
f  71//90 70//90 115//90 116//90
f  116//91 115//91 86//91 83//91
f  67//92 66//92 117//92 113//92
f  113//93 117//93 82//93 94//93
f  74//94 81//94 110//94 114//94
f  114//95 110//95 91//95 90//95
f  70//96 79//96 112//96 115//96
f  115//97 112//97 87//97 86//97
f  66//98 71//98 116//98 117//98
f  117//99 116//99 83//99 82//99
f  118//100 119//100 120//100
f  119//101 118//101 121//101
f  118//102 120//102 122//102
f  118//103 122//103 123//103
f  118//104 123//104 121//104
f  119//105 121//105 124//105
f  120//106 119//106 125//106
f  122//107 120//107 126//107
f  123//108 122//108 127//108
f  121//109 123//109 128//109
f  119//110 124//110 125//110
f  120//111 125//111 126//111
f  122//112 126//112 127//112
f  123//113 127//113 128//113
f  121//114 128//114 124//114
f  125//115 124//115 129//115
f  126//116 125//116 129//116
f  127//117 126//117 129//117
f  128//118 127//118 129//118
f  124//119 128//119 129//119
f  63//120 59//120 130//120 131//120
f  62//121 58//121 132//121 133//121
f  61//122 60//122 134//122 135//122
f  59//123 56//123 136//123 130//123
f  58//124 57//124 137//124 132//124
f  56//125 55//125 138//125 136//125
f  57//126 63//126 131//126 137//126
f  60//127 62//127 133//127 134//127
f  55//128 61//128 135//128 138//128
f  131//129 130//129 80//129 73//129
f  133//130 132//130 78//130 69//130
f  135//131 134//131 68//131 65//131
f  130//132 136//132 76//132 80//132
f  132//133 137//133 72//133 78//133
f  136//134 138//134 64//134 76//134
f  137//135 131//135 73//135 72//135
f  134//136 133//136 69//136 68//136
f  138//137 135//137 65//137 64//137
f  13//138 6//138 5//138 11//138 2//138 1//138 9//138 17//138 14//138

