# File produced by Open Asset Import Library (http://www.assimp.sf.net)
# (assimp v4.1.0)

mtllib W.mtl

# 146 vertex positions
v  0.2554526925086975 -0.1722310781478882 -0.4424566924571991
v  0.4800938069820404 -0.1722310781478882 -0.1747401207685471
v  0.5075550079345703 -0.1355759799480438 -0.1847351044416428
v  0.270064502954483 -0.1355759799480438 -0.4677650034427643
v  0.2554529011249542 -0.1722311079502106 0.4424563944339752
v  -0.08871710300445557 -0.1722311079502106 0.5031430125236511
v  -0.093791663646698 -0.1355760246515274 0.5319222807884216
v  0.2700647115707397 -0.1355760097503662 0.4677647054195404
v  -0.08871728181838989 -0.1722310781478882 -0.5031430721282959
v  -0.0937919020652771 -0.1355759650468826 -0.5319225788116455
v  0.4800939857959747 -0.1722311079502106 0.1747393906116486
v  0.5075551271438599 -0.1355760097503662 0.1847344040870667
v  -0.3913752138614655 -0.1722311079502106 0.3284032046794891
v  -0.5109043121337891 -0.1722310930490494 -7.528462298012073e-09
v  -0.5401278138160706 -0.135575994849205 -5.926216406493268e-09
v  -0.413761705160141 -0.1355760097503662 0.3471876084804535
v  -0.3913753032684326 -0.1722310781478882 -0.3284034132957458
v  -0.413761705160141 -0.1355759799480438 -0.3471879065036774
v  0.2713403105735779 0.03046352975070477 -0.4699747860431671
v  -0.09423500299453735 0.03046353347599506 -0.5344355702400208
v  0.2713406085968018 0.03046355023980141 0.4699744880199432
v  0.5099529027938843 0.03046350181102753 0.1856071054935455
v  -0.542679488658905 0.03046350926160812 1.331602605958437e-09
v  -0.4157164096832275 0.03046349436044693 0.3488278985023499
v  -0.4157164096832275 0.03046352416276932 -0.3488281071186066
v  0.50995272397995 0.03046351671218872 -0.1856078952550888
v  -0.09423475712537766 0.03046354651451111 0.5344352722167969
v  0.2489597946405411 0.04879112914204597 -0.4312106966972351
v  0.4678911864757538 0.04879111796617508 -0.1702986061573029
v  0.50995272397995 0.06711870431900024 -0.1856078952550888
v  0.2713403105735779 0.06711871922016144 -0.4699747860431671
v  0.2489600032567978 0.04879109188914299 0.4312101900577545
v  -0.08646214008331299 0.04879108816385269 0.4903542995452881
v  -0.09423475712537766 0.06711873412132263 0.5344352722167969
v  0.2713406085968018 0.06711873412132263 0.4699744880199432
v  -0.08646231144666672 0.04879113286733627 -0.4903545081615448
v  -0.09423500299453735 0.06711871922016144 -0.5344355702400208
v  0.4678913056850433 0.04879110306501389 0.1702979952096939
v  0.5099529027938843 0.06711868941783905 0.1856071054935455
v  -0.3814274966716766 0.04879109561443329 0.3200562000274658
v  -0.4979184865951538 0.04879111051559448 2.132727772163889e-09
v  -0.542679488658905 0.06711869686841965 2.933852050190922e-09
v  -0.4157164096832275 0.06711874157190323 0.3488278985023499
v  -0.3814274966716766 0.04879112541675568 -0.320056289434433
v  -0.4157164096832275 0.06711871176958084 -0.3488281071186066
v  0.4057056903839111 0.23663529753685 0.1476643085479736
v  0.405705600976944 0.23663529753685 -0.1476648896932602
v  -0.3307332992553711 0.2366352826356888 0.2775186002254486
v  -0.07497072219848633 0.2366352826356888 0.4251830875873566
v  -0.3307333886623383 0.2366353124380112 -0.2775188088417053
v  -0.4317420125007629 0.23663529753685 1.03436601506246e-08
v  0.2158714979887009 0.2366353124380112 -0.3739000856876373
v  0.2158717960119247 0.2366352826356888 0.3738997876644135
v  -0.07497084140777588 0.2366353124380112 -0.4251833856105804
v  0.2016748934984207 0.4309055209159851 -0.3493108749389648
v  -0.07004045695066452 0.4309055209159851 -0.397221565246582
v  0.2016751021146774 0.4309055805206299 0.3493105173110962
v  0.3790248036384583 0.4309056103229523 0.1379533112049103
v  -0.4033488035202026 0.4309056103229523 1.883548783609967e-08
v  -0.3089829087257385 0.4309056103229523 0.2592678368091583
v  -0.3089829087257385 0.4309056103229523 -0.2592679560184479
v  0.3790248036384583 0.4309056103229523 -0.1379537880420685
v  -0.07004027813673019 0.4309055805206299 0.3972213268280029
v  0.3267050087451935 0.4653728902339935 -0.118910975754261
v  0.1738362014293671 0.4653728902339935 -0.3010927736759186
v  -0.06037199124693871 0.4653728604316711 0.3423896431922913
v  0.1738363951444626 0.4653728902339935 0.3010923266410828
v  -0.06037211045622826 0.4653729200363159 -0.3423899710178375
v  0.3267050981521606 0.4653728902339935 0.1189104244112968
v  -0.3476713001728058 0.4653728902339935 2.034209956036648e-08
v  -0.2663314044475555 0.4653728902339935 0.2234789133071899
v  -0.2663314044475555 0.4653728902339935 -0.2234791815280914
v  -0.3862648010253906 0.5195149779319763 -0.4107310771942139
v  -0.1364355981349945 0.5847156047821045 -0.545234203338623
v  -0.1364355981349945 1.311851978302002 -0.5452341437339783
v  -0.2614164054393768 1.272037029266357 -0.4107311367988586
v  0.3862654864788055 0.5195149779319763 -0.4107313752174377
v  0.455654114484787 0.5327622294425964 0.1080345213413239
v  0.2507056891918182 1.245391964912415 -0.01164364628493786
v  0.2614170908927917 1.272037029266357 -0.4107313454151154
v  0.1447037011384964 0.6209818124771118 0.545234203338623
v  -0.1447025984525681 0.6209818124771118 0.545234203338623
v  -0.1447025984525681 1.275584936141968 0.1046004518866539
v  0.144703596830368 1.275584936141968 0.1046004518866539
v  0.136436402797699 0.5847156047821045 -0.545234203338623
v  0.136436402797699 1.311851978302002 -0.5452341437339783
v  -0.3879570066928864 0.5593342781066895 0.3369733393192291
v  -0.2465939968824387 1.244763970375061 -0.0111815957352519
v  -0.4556530117988586 0.5327622294425964 0.108034722507
v  0.3879581987857819 0.5593342781066895 0.3369731307029724
v  -0.1961618959903717 0.4238623976707458 -0.306493878364563
v  -0.1023787036538124 0.4727877378463745 -0.4074224829673767
v  0.1961627006530762 0.4238623976707458 -0.3064940571784973
v  0.1881249994039536 0.4338029026985168 0.08277834951877594
v  0.03976165875792503 0.500001072883606 0.4108449220657349
v  -0.03976057842373848 0.500001072883606 0.4108449220657349
v  -0.1881241053342819 0.4338029026985168 0.08277846872806549
v  0.1023795008659363 0.4727877378463745 -0.4074225723743439
v  0.1850405037403107 0.4537420868873596 0.2545697391033173
v  -0.1850394010543823 0.4537420868873596 0.2545698285102844
v  -0.2614162862300873 1.645359039306641 -0.3387453258037567
v  -0.2123897969722748 1.427564024925232 -0.002707954496145248
v  0.1364365071058273 1.745473980903625 -0.436995804309845
v  -0.1364355981349945 1.745473980903625 -0.436995804309845
v  0.2165015041828156 1.428230047225952 -0.002793606603518128
v  0.2614172101020813 1.645359039306641 -0.3387454450130463
v  0.1510315984487534 1.947977066040039 -0.03389528393745422
v  0.07896380871534348 2.053597927093506 -0.1262015104293823
v  -0.07838261127471924 2.053597927093506 -0.1262015104293823
v  -0.1504503935575485 1.947977066040039 -0.03389516472816467
v  -0.1447025984525681 1.307317972183228 0.2813979685306549
v  0.144703596830368 1.307317972183228 0.2813978493213654
v  -0.1159657016396523 1.222697019577026 0.3917074501514435
v  0.1162376031279564 1.222697019577026 0.3917074501514435
v  -0.1025708988308907 1.255941033363342 0.5216611623764038
v  0.102572001516819 1.255941033363342 0.5216611623764038
v  0.102572001516819 1.331686973571777 0.5133362412452698
v  -0.1025708988308907 1.331686973571777 0.5133362412452698
v  -0.1025708019733429 1.512825965881348 0.5367720723152161
v  0.102572001516819 1.512825965881348 0.5367720723152161
v  -0.1159655973315239 1.707756996154785 0.2919756770133972
v  0.1162376031279564 1.707756996154785 0.2919755876064301
v  0.2088329941034317 1.671239018440247 -0.116228923201561
v  0.175717294216156 1.762024998664856 -0.02477387338876724
v  0.1652791053056717 1.689959049224854 0.0729873850941658
v  0.1953583061695099 1.606101036071777 -0.01544336974620819
v  0.07436507195234299 2.131995916366577 0.01406547334045172
v  -0.07378380745649338 2.131995916366577 0.01406547334045172
v  0.1422200947999954 2.076479911804199 0.06258282065391541
v  -0.1416389048099518 2.076479911804199 0.06258293986320496
v  0.1437249928712845 1.337507009506226 0.3938747644424438
v  0.1603246033191681 1.419327974319458 0.2742505669593811
v  -0.1562128067016602 1.418835997581482 0.274313747882843
v  -0.1401547938585281 1.336956977844238 0.3939453661441803
v  -0.1746739000082016 1.761908054351807 -0.02475879341363907
v  -0.1643285006284714 1.689841985702515 0.0730024054646492
v  -0.1884984970092773 1.690216064453125 0.05165029317140579
v  -0.1960449069738388 1.742784023284912 -0.01966122351586819
v  0.1878817975521088 1.69015908241272 0.05045486614108086
v  0.2095779031515121 1.629672050476074 -0.01333008892834187
v  -0.2079637050628662 1.671123027801514 -0.1162138283252716
v  -0.1932557970285416 1.605783939361572 -0.01540260016918182
v  -0.2095994055271149 1.628900051116943 -0.01283643953502178
v  -0.2203280031681061 1.676560997962952 -0.08637277781963348
v  0.2192970961332321 1.67665696144104 -0.08602652698755264
v  0.1954109072685242 1.742140054702759 -0.02006016299128532

# 0 UV coordinates

# 137 vertex normals
vn -0.6130782961845398 0.599577009677887 0.5144342184066772
vn -0.1389736980199814 0.5995755791664124 -0.7881596088409424
vn -0.1389732956886292 0.5995775461196899 0.7881579995155334
vn -0.6130787134170532 0.5995771288871765 -0.5144336819648743
vn 0.7520520091056824 0.5995771288871765 -0.2737246751785278
vn 0.4001581966876984 0.5995779633522034 0.6930943131446838
vn -0.8003165721893311 0.5995776057243347 3.355933699822344e-07
vn 0.40015909075737 0.5995754599571228 -0.6930961012840271
vn 0.7520521283149719 0.599577009677887 0.2737247347831726
vn -0.1736298948526382 0.0144394775852561 0.9847052097320557
vn -0.7659649252891541 0.01443972811102867 -0.6427204012870789
vn 0.9395946264266968 0.0144395949319005 -0.3419848084449768
vn 0.4999479949474335 0.01443942170590162 0.8659350872039795
vn -0.9998958110809326 0.01443933974951506 4.824781854040339e-07
vn 0.4999476969242096 0.01443997863680124 -0.8659353256225586
vn 0.9395948052406311 0.01443932484835386 0.3419845104217529
vn -0.7659643292427063 0.01443955209106207 0.6427211165428162
vn -0.173630103468895 0.01443974301218987 -0.9847052097320557
vn -0.3060027956962585 0.9167513847351074 0.2567672431468964
vn -0.06936520338058472 0.916751503944397 -0.3933894634246826
vn -0.06936513632535934 0.9167513251304626 0.393390029668808
vn -0.3060028851032257 0.916751503944397 -0.2567667663097382
vn 0.3753680884838104 0.9167513251304626 -0.1366229504346848
vn 0.1997292935848236 0.916751503944397 0.3459408283233643
vn -0.3994585871696472 0.9167513251304626 4.007248222137605e-08
vn 0.1997290998697281 0.9167513251304626 -0.3459412753582001
vn 0.3753679096698761 0.9167513847351074 0.136622741818428
vn 0.3753674030303955 -0.9167516827583313 0.1366225481033325
vn 0.1997289955615997 -0.9167513847351074 -0.3459411263465881
vn -0.3994584083557129 -0.9167513847351074 1.486485246005032e-07
vn 0.1997290998697281 -0.916751503944397 0.3459407687187195
vn 0.3753682971000671 -0.9167513251304626 -0.1366229504346848
vn -0.3060025870800018 -0.9167516231536865 -0.2567665278911591
vn -0.06936513632535934 -0.9167513847351074 0.3933896720409393
vn -0.06936520338058472 -0.9167516231536865 -0.3933894336223602
vn -0.3060025870800018 -0.9167513847351074 0.2567669749259949
vn -0.8518168926239014 -0.5238397717475891 3.02104240290646e-07
vn 0.4259079992771149 -0.5238397121429443 -0.7376952171325684
vn 0.800446093082428 -0.5238394737243652 0.2913385629653931
vn -0.6525291800498962 -0.5238397717475891 0.547537624835968
vn -0.1479164063930511 -0.5238397121429443 -0.8388757705688477
vn -0.1479161977767944 -0.5238398313522339 0.8388758897781372
vn -0.6525297164916992 -0.5238398909568787 -0.547537088394165
vn 0.8004459142684937 -0.5238398909568787 -0.2913386225700378
vn 0.4259085059165955 -0.523840069770813 0.7376949191093445
vn -0.1720328032970428 -0.1360615491867065 0.9756494760513306
vn -0.7589207887649536 -0.1360616683959961 -0.6368097066879272
vn 0.9309538006782532 -0.1360615789890289 -0.3388397097587585
vn 0.4953503012657166 -0.1360614448785782 0.857971727848053
vn -0.9907004237174988 -0.1360615938901901 2.032035695265222e-07
vn 0.4953500032424927 -0.1360617578029633 -0.8579719066619873
vn 0.9309538006782532 -0.1360617130994797 0.338839590549469
vn -0.7589203715324402 -0.1360616236925125 0.636810302734375
vn -0.1720332056283951 -0.1360616534948349 -0.9756494760513306
vn -0.4214268028736115 -0.8350769281387329 0.3536187708377838
vn -0.09552954882383347 -0.8350765109062195 -0.5417763590812683
vn -0.09552948921918869 -0.8350765705108643 0.5417760610580444
vn -0.4214265048503876 -0.8350769281387329 -0.3536190390586853
vn 0.5169563293457031 -0.8350765705108643 -0.1881573349237442
vn 0.2750667035579681 -0.8350769281387329 0.4764293730258942
vn -0.5501338839530945 -0.8350765705108643 -3.65023637982631e-08
vn 0.2750667035579681 -0.8350765109062195 -0.4764301180839539
vn 0.5169563293457031 -0.8350768089294434 0.1881569772958755
vn 0 1 4.371139894487897e-08
vn 0 -1 -4.371139894487897e-08
vn 0.5915462970733643 -0.04991254210472107 0.8047246932983398
vn -0.974904477596283 -0.2146102041006088 0.05919156968593597
vn 0 -0.5584069490432739 -0.8295673131942749
vn -0.5915457010269165 -0.04991254210472107 0.8047251105308533
vn 0 -4.371139894487897e-08 1
vn 0.6775068044662476 -0.4248785674571991 -0.6003856062889099
vn 0.9744806289672852 -0.2177360951900482 0.05457744747400284
vn -0.6736018061637878 -0.4249551594257355 -0.6047096252441406
vn 0.9209058880805969 -0.3099684119224548 -0.2363301217556
vn -0.9222822189331055 -0.3050957024097443 -0.2373023182153702
vn 0.1262461990118027 0.807767927646637 0.575823962688446
vn -0.3909155130386353 0.9204220771789551 0.002908269176259637
vn 0 0.7432109117507935 -0.6690571308135986
vn 0.3909156024456024 0.9204220175743103 0.002907912246882915
vn -0.1262461990118027 0.8077679872512817 0.5758236646652222
vn -0.2483962029218674 0.8243017196655273 -0.5087496638298035
vn 0.3599483966827393 0.9173439741134644 -0.1700505614280701
vn 0 0.7762352824211121 0.6304433345794678
vn -0.3599484860897064 0.9173439741134644 -0.1700504571199417
vn 0.2483959048986435 0.8243017196655273 -0.5087496638298035
vn 0 0.9996805787086487 -0.02527661807835102
vn 0.9937307238578796 -0.04640327766537666 -0.1017156019806862
vn 0 -0.2421832382678986 0.9702305793762207
vn -0.994681715965271 -0.04792200773954391 -0.09116976708173752
vn 0.7177448272705078 -0.1517749279737473 0.6795637011528015
vn -0.7177447080612183 -0.1517747342586517 0.6795638203620911
vn -0.8104392290115356 -0.5111849904060364 0.2861437797546387
vn 0 -0.7101520299911499 0.7040484547615051
vn 0.8103181719779968 -0.5118457078933716 0.2853042781352997
vn 0 0.9842712879180908 -0.1766636520624161
vn 0 0.7934314012527466 0.6086599826812744
vn 0 0.968802809715271 -0.2478331625461578
vn 0 0.1283102482557297 -0.9917342066764832
vn 0 -0.7822802066802979 -0.6229268312454224
vn -0.9672638177871704 -0.1388275921344757 -0.2124329060316086
vn -0.9697532057762146 -0.1299667805433273 -0.2066093981266022
vn -8.954950203587941e-07 -0.8729068040847778 0.4878869652748108
vn -4.532139712409844e-07 -0.6580527424812317 -0.7529720067977905
vn -5.34683977093664e-07 0.6004012823104858 -0.7996991276741028
vn 0.8364384174346924 -0.4352754056453705 0.3330259621143341
vn -0.8364375233650208 -0.435276210308075 0.3330269753932953
vn 1.551780002273517e-07 -0.8049324750900269 -0.5933665633201599
vn 0 -0.1092484518885612 -0.9940146207809448
vn -0.965018093585968 0.131880909204483 -0.2266000062227249
vn -0.9809808731079102 0.1851630061864853 -0.05823307111859322
vn -0.9568451046943665 0.2591556906700134 -0.1314761787652969
vn -0.7484099268913269 -0.1083352714776993 -0.6543288230895996
vn -0.9790415167808533 -0.07571046054363251 -0.1890653073787689
vn -0.9650670289993286 -0.133664682507515 -0.2253427952528
vn -0.9700992107391357 -0.1359251886606216 -0.2010768949985504
vn 0.9627701044082642 -0.07300786674022675 -0.2602764070034027
vn 0.9848005175590515 0.1539891064167023 -0.08034597337245941
vn 0.9703797101974487 0.1167614087462425 -0.2114945948123932
vn 0.9822521209716797 -0.06792448461055756 -0.1748341023921967
vn 0.9692816138267517 -0.121966190636158 -0.2135830968618393
vn 0.9718356728553772 -0.1230938956141472 -0.200955793261528
vn 0.4782676994800568 -0.6819688081741333 -0.5533341765403748
vn -0.6358144283294678 0.4403837323188782 -0.6338788270950317
vn 0.9696558713912964 -0.1362043917179108 -0.203016996383667
vn 0.9684234261512756 -0.1195547953248024 -0.2187761068344116
vn 0.9715451002120972 -0.1188979893922806 -0.204849898815155
vn -0.9687429070472717 -0.1386922895908356 -0.2056739032268524
vn -0.9681854248046875 -0.1302808821201324 -0.2136445939540863
vn 0.966717004776001 -0.1364791840314865 -0.2164064943790436
vn 0.9691100716590881 -0.1279772818088531 -0.2108260989189148
vn 0.6637582778930664 -0.6374818086624146 0.3912058770656586
vn 0.8058010935783386 0.5436517000198364 0.23479263484478
vn 0.5832837224006653 0.4847463369369507 -0.6517676711082458
vn -0.9684836268424988 -0.1345383822917938 -0.2096160054206848
vn -0.5312619209289551 -0.6538612246513367 -0.5387266874313354
vn -0.7050371766090393 -0.614238977432251 0.3544475734233856
vn -0.8461151123046875 0.4920456111431122 0.2048915177583694

# Mesh 'White_Knight_mesh' with 137 faces
g White_Knight_mesh
usemtl Material_003
f  1//1 2//1 3//1 4//1
f  5//2 6//2 7//2 8//2
f  9//3 1//3 4//3 10//3
f  11//4 5//4 8//4 12//4
f  13//5 14//5 15//5 16//5
f  17//6 9//6 10//6 18//6
f  2//7 11//7 12//7 3//7
f  6//8 13//8 16//8 7//8
f  14//9 17//9 18//9 15//9
f  10//10 4//10 19//10 20//10
f  12//11 8//11 21//11 22//11
f  16//12 15//12 23//12 24//12
f  18//13 10//13 20//13 25//13
f  3//14 12//14 22//14 26//14
f  7//15 16//15 24//15 27//15
f  15//16 18//16 25//16 23//16
f  4//17 3//17 26//17 19//17
f  8//18 7//18 27//18 21//18
f  28//19 29//19 30//19 31//19
f  32//20 33//20 34//20 35//20
f  36//21 28//21 31//21 37//21
f  38//22 32//22 35//22 39//22
f  40//23 41//23 42//23 43//23
f  44//24 36//24 37//24 45//24
f  29//25 38//25 39//25 30//25
f  33//26 40//26 43//26 34//26
f  41//27 44//27 45//27 42//27
f  23//28 25//28 44//28 41//28
f  27//29 24//29 40//29 33//29
f  26//30 22//30 38//30 29//30
f  25//31 20//31 36//31 44//31
f  24//32 23//32 41//32 40//32
f  22//33 21//33 32//33 38//33
f  20//34 19//34 28//34 36//34
f  21//35 27//35 33//35 32//35
f  19//36 26//36 29//36 28//36
f  30//37 39//37 46//37 47//37
f  34//38 43//38 48//38 49//38
f  42//39 45//39 50//39 51//39
f  31//40 30//40 47//40 52//40
f  35//41 34//41 49//41 53//41
f  37//42 31//42 52//42 54//42
f  39//43 35//43 53//43 46//43
f  43//44 42//44 51//44 48//44
f  45//45 37//45 54//45 50//45
f  54//46 52//46 55//46 56//46
f  46//47 53//47 57//47 58//47
f  48//48 51//48 59//48 60//48
f  50//49 54//49 56//49 61//49
f  47//50 46//50 58//50 62//50
f  49//51 48//51 60//51 63//51
f  51//52 50//52 61//52 59//52
f  52//53 47//53 62//53 55//53
f  53//54 49//54 63//54 57//54
f  55//55 62//55 64//55 65//55
f  57//56 63//56 66//56 67//56
f  56//57 55//57 65//57 68//57
f  58//58 57//58 67//58 69//58
f  60//59 59//59 70//59 71//59
f  61//60 56//60 68//60 72//60
f  62//61 58//61 69//61 64//61
f  63//62 60//62 71//62 66//62
f  59//63 61//63 72//63 70//63
f  13//64 6//64 5//64 11//64 2//64 1//64 9//64 17//64 14//64
f  71//65 70//65 72//65 68//65 65//65 64//65 69//65 67//65 66//65
f  73//66 74//66 75//66 76//66
f  77//67 78//67 79//67 80//67
f  81//68 82//68 83//68 84//68
f  85//69 77//69 80//69 86//69
f  74//70 85//70 86//70 75//70
f  82//71 87//71 88//71 83//71
f  89//72 73//72 76//72 88//72
f  90//73 81//73 84//73 79//73
f  87//74 89//74 88//74
f  78//75 90//75 79//75
f  74//76 73//76 91//76 92//76
f  78//77 77//77 93//77 94//77
f  82//78 81//78 95//78 96//78
f  73//79 89//79 97//79 91//79
f  77//80 85//80 98//80 93//80
f  81//81 90//81 99//81 95//81
f  89//82 87//82 100//82 97//82
f  85//83 74//83 92//83 98//83
f  90//84 78//84 94//84 99//84
f  87//85 82//85 96//85 100//85
f  100//86 96//86 95//86 99//86 94//86 93//86 98//86 92//86 91//86 97//86
f  88//87 76//87 101//87 102//87
f  75//88 86//88 103//88 104//88
f  80//89 79//89 105//89 106//89
f  76//90 75//90 104//90 101//90
f  86//91 80//91 106//91 103//91
f  103//92 106//92 107//92 108//92
f  104//93 103//93 108//93 109//93
f  101//94 104//94 109//94 110//94
f  84//95 83//95 111//95 112//95
f  112//96 111//96 113//96 114//96
f  114//97 113//97 115//97 116//97
f  117//98 118//98 119//98 120//98
f  120//99 119//99 121//99 122//99
f  107//100 106//100 123//100 124//100
f  105//101 122//101 125//101 126//101
f  109//102 108//102 127//102 128//102
f  127//103 129//103 130//103 128//103
f  107//104 110//104 130//104 129//104
f  110//105 109//105 128//105 130//105
f  108//106 107//106 129//106 127//106
f  121//107 110//107 107//107 122//107
f  116//108 115//108 118//108 117//108
f  116//109 117//109 131//109 114//109
f  114//110 131//110 132//110 112//110
f  112//111 132//111 105//111 84//111
f  84//112 105//112 79//112
f  120//113 122//113 131//113 117//113
f  131//114 122//114 132//114
f  122//115 105//115 132//115
f  102//116 133//116 111//116 88//116
f  113//117 111//117 133//117 134//117
f  113//118 134//118 118//118 115//118
f  118//119 134//119 121//119 119//119
f  134//120 133//120 121//120
f  121//121 133//121 102//121
f  135//122 136//122 137//122 138//122
f  126//123 125//123 139//123 140//123
f  110//124 121//124 136//124 135//124
f  102//125 101//125 141//125 142//125
f  121//126 102//126 142//126 136//126
f  122//127 107//127 124//127 125//127
f  106//128 105//128 126//128 123//128
f  101//129 110//129 135//129 141//129
f  143//130 144//130 138//130 137//130
f  141//131 135//131 138//131 144//131
f  142//132 141//132 144//132 143//132
f  136//133 142//133 143//133 137//133
f  145//134 140//134 139//134 146//134
f  125//135 124//135 146//135 139//135
f  124//136 123//136 145//136 146//136
f  123//137 126//137 140//137 145//137

